<?xml version="1.0" standalone="no"?>
<!DOCTYPE svg PUBLIC "-//W3C//DTD SVG 20010904//EN"
 "http://www.w3.org/TR/2001/REC-SVG-20010904/DTD/svg10.dtd">
<svg version="1.0" xmlns="http://www.w3.org/2000/svg"
 width="3578.000000pt" height="1633.000000pt" viewBox="0 0 3578.000000 1633.000000"
 preserveAspectRatio="xMidYMid meet">

<g transform="translate(0.000000,1633.000000) scale(0.100000,-0.100000)"
fill="#000000" stroke="none">
<path d="M10810 13513 c-18 -43 -45 -105 -60 -138 -25 -52 -39 -84 -80 -180
-5 -11 -25 -56 -45 -100 -20 -44 -42 -93 -50 -110 -7 -16 -22 -51 -33 -76 -12
-26 -64 -145 -117 -265 -53 -121 -106 -239 -117 -264 -22 -49 -52 -117 -73
-165 -7 -16 -28 -61 -45 -100 -18 -38 -61 -137 -97 -220 -57 -130 -194 -440
-255 -574 -10 -24 -27 -64 -38 -90 -10 -25 -34 -80 -54 -121 -20 -41 -37 -76
-37 -77 1 -2 -11 -29 -25 -60 -14 -32 -46 -105 -71 -163 -25 -58 -55 -127 -68
-155 -71 -155 -130 -288 -355 -800 -51 -115 -110 -248 -131 -293 -22 -46 -39
-86 -39 -89 0 -4 -284 -646 -343 -773 -16 -36 -36 -83 -43 -104 -8 -22 -18
-44 -23 -50 -5 -6 -21 -40 -36 -76 -15 -36 -37 -87 -50 -115 -12 -27 -48 -108
-79 -180 -32 -71 -73 -164 -92 -205 -19 -42 -34 -79 -34 -83 0 -3 -16 -39 -36
-79 -20 -40 -42 -89 -49 -110 -7 -20 -25 -60 -38 -90 -60 -126 -107 -230 -107
-235 0 -4 -76 -178 -133 -303 -14 -30 -56 -128 -95 -216 -39 -89 -87 -196
-106 -238 -20 -43 -36 -79 -36 -81 0 -3 -14 -35 -31 -72 -48 -105 -100 -222
-184 -413 -42 -96 -88 -199 -101 -228 -13 -29 -24 -55 -24 -57 0 -2 -13 -32
-29 -67 -61 -131 -211 -468 -211 -473 0 -2 -13 -31 -28 -63 -16 -32 -31 -65
-35 -75 -6 -16 518 -17 9197 -17 l9203 0 47 128 c65 174 101 267 126 332 12
30 37 98 56 150 20 52 50 133 69 180 33 83 74 190 122 320 14 36 37 97 53 135
15 39 35 90 44 115 8 25 40 110 71 190 31 80 78 206 106 280 28 74 66 176 85
225 40 101 45 116 104 270 23 61 50 131 61 157 10 26 46 120 80 210 33 90 71
190 84 223 13 33 41 107 63 165 135 359 237 626 284 745 11 28 23 61 28 75 4
14 31 84 58 155 78 202 163 424 232 605 154 404 182 479 205 540 45 125 106
285 125 330 10 25 33 83 50 130 17 47 47 123 66 170 18 47 44 114 57 150 37
98 120 321 170 450 24 63 78 205 120 315 42 110 94 247 117 305 22 58 49 130
60 160 10 30 43 118 73 195 30 77 69 178 87 225 17 47 36 94 40 105 5 11 23
58 40 105 17 47 58 153 90 235 123 316 160 417 160 431 0 12 -1209 14 -8934
14 l-8933 0 -33 -77z m17370 -296 c0 -5 -208 -558 -275 -732 -13 -33 -41 -107
-63 -165 -91 -243 -333 -877 -343 -900 -6 -14 -44 -113 -85 -220 -40 -107
-101 -267 -134 -355 -111 -290 -202 -529 -225 -590 -35 -94 -311 -818 -355
-930 -21 -55 -54 -144 -74 -197 -20 -53 -40 -107 -46 -120 -16 -39 -82 -212
-85 -223 -1 -5 -7 -23 -14 -40 -24 -59 -60 -151 -97 -250 -20 -55 -45 -120
-54 -145 -56 -145 -161 -421 -225 -590 -40 -107 -95 -249 -120 -315 -26 -66
-55 -142 -65 -170 -10 -27 -27 -72 -38 -100 -19 -50 -93 -243 -262 -690 -142
-374 -257 -675 -332 -870 -17 -44 -38 -100 -47 -125 l-17 -45 -8793 -3 c-7033
-2 -8792 0 -8788 10 8 22 198 449 230 518 16 36 60 135 97 220 37 85 104 236
148 335 203 456 355 802 361 820 4 11 22 52 40 90 38 82 34 73 146 325 47 107
92 209 100 225 15 35 238 539 267 605 20 45 72 161 114 255 12 28 41 93 64
145 23 52 48 109 55 125 8 17 42 93 75 170 34 77 68 154 75 170 44 98 305 686
405 915 20 47 51 114 67 150 17 36 70 155 118 265 81 185 264 598 305 690 60
133 81 179 160 360 48 110 125 283 170 385 45 102 97 219 115 260 18 41 59
136 93 210 33 74 85 194 117 265 31 72 70 160 87 198 l31 67 8548 0 c4702 0
8549 -1 8549 -3z"/>
<path d="M12577 12848 c-14 -37 -364 -906 -420 -1043 -36 -88 -162 -403 -282
-700 -225 -560 -365 -907 -750 -1865 -667 -1655 -763 -1896 -758 -1903 2 -4
326 -7 720 -6 l715 1 15 37 c17 38 182 475 315 833 l81 218 1221 2 c672 2
1232 2 1246 0 23 -3 34 -23 113 -210 316 -757 364 -866 383 -873 18 -7 1454
-12 1454 -5 0 2 -45 106 -101 232 -55 126 -165 375 -244 554 -154 350 -316
719 -663 1505 -269 612 -489 1110 -507 1150 -8 17 -57 129 -110 250 -105 240
-258 588 -383 870 -43 99 -157 357 -252 573 l-173 392 -807 0 c-637 0 -809 -3
-813 -12z m874 -1383 c17 -39 38 -90 48 -115 82 -204 195 -476 217 -525 15
-33 28 -64 29 -70 5 -22 97 -241 106 -250 5 -5 9 -15 9 -22 0 -12 100 -260
230 -568 32 -77 83 -201 113 -275 30 -75 61 -149 69 -165 9 -17 19 -45 23 -62
l7 -33 -856 0 c-682 0 -856 3 -856 13 0 11 109 306 195 527 38 97 73 193 79
220 3 8 14 36 25 61 12 26 36 89 55 140 19 52 44 119 56 149 12 30 22 60 24
65 1 6 25 69 53 140 57 148 156 406 245 640 16 44 36 96 44 115 7 19 18 48 24
63 6 16 15 27 21 25 6 -2 24 -35 40 -73z"/>
<path d="M16023 12848 c3 -7 29 -67 58 -133 28 -66 103 -239 166 -385 63 -146
157 -362 208 -480 51 -118 173 -399 270 -625 98 -225 236 -545 307 -710 72
-165 173 -399 225 -520 239 -553 289 -669 413 -955 73 -168 145 -334 160 -370
15 -36 116 -270 225 -520 108 -250 237 -549 287 -665 50 -115 94 -215 99 -221
5 -7 105 -10 295 -10 l288 1 120 250 c67 138 169 352 228 475 59 124 144 302
189 395 44 94 100 211 124 260 90 190 325 682 580 1215 65 135 137 286 160
335 93 196 302 632 318 660 l16 30 71 -150 c40 -82 87 -181 105 -220 18 -38
73 -155 122 -260 50 -104 183 -386 296 -625 113 -239 269 -570 347 -735 78
-165 155 -327 170 -360 197 -421 593 -1252 601 -1260 11 -11 509 -21 563 -11
26 5 36 14 48 44 15 35 276 641 498 1152 56 129 157 363 225 520 261 605 450
1041 512 1185 36 83 91 211 123 285 32 74 116 270 188 435 72 165 260 602 420
970 159 369 322 744 361 835 39 90 71 168 71 172 0 4 -324 8 -721 8 l-720 0
-18 -42 c-21 -48 -155 -364 -346 -813 -70 -165 -223 -525 -340 -800 -117 -275
-270 -635 -340 -800 -227 -535 -246 -580 -254 -588 -5 -5 -20 15 -34 45 -26
56 -209 450 -257 553 -338 729 -512 1105 -589 1270 -26 55 -159 342 -296 638
l-249 537 -560 -2 -559 -3 -119 -255 c-66 -140 -162 -345 -213 -455 -51 -110
-177 -380 -280 -600 -103 -220 -216 -461 -250 -535 -34 -74 -78 -169 -98 -210
-153 -326 -283 -605 -359 -770 -97 -210 -95 -206 -103 -198 -3 3 -107 241
-231 529 -125 288 -298 691 -386 894 -88 204 -227 528 -310 720 -83 193 -158
368 -168 390 -10 22 -62 142 -116 268 l-97 227 -725 0 c-575 0 -723 -3 -719
-12z"/>
<path d="M13524 6720 c-69 -28 -80 -160 -17 -209 33 -27 63 -27 96 0 58 45 58
153 0 198 -27 22 -45 25 -79 11z"/>
<path d="M15770 6721 c-104 -32 -169 -109 -185 -222 -8 -54 13 -149 50 -223
l24 -50 -22 -15 c-207 -144 -222 -396 -32 -520 36 -23 50 -26 130 -26 81 0 96
3 155 32 36 18 73 38 83 45 19 13 30 5 72 -55 11 -16 26 -17 129 -15 l117 3
-80 112 -80 112 30 38 c33 41 115 202 125 246 l6 27 -81 0 c-79 0 -82 -1 -93
-27 -19 -43 -77 -133 -86 -133 -9 0 -112 147 -112 161 0 5 19 26 43 48 102 94
133 240 73 347 -15 29 -41 61 -57 73 -60 44 -145 61 -209 42z m127 -179 c7 -9
13 -24 14 -32 2 -17 2 -69 0 -86 -1 -7 -19 -31 -42 -54 -39 -40 -41 -41 -60
-24 -66 59 -75 183 -16 212 28 15 87 5 104 -16z m-81 -534 c93 -128 91 -123
46 -151 -103 -66 -193 -27 -205 87 -4 30 3 48 31 92 20 30 44 54 52 54 9 0 43
-37 76 -82z"/>
<path d="M10616 6706 c-8 -6 -28 -58 -46 -116 -18 -58 -43 -136 -55 -175 -52
-156 -235 -736 -235 -742 0 -2 47 -3 103 -3 l104 0 30 103 30 102 191 3 190 2
34 -102 35 -103 106 -3 106 -3 -29 83 c-30 89 -131 377 -230 658 -34 96 -71
204 -84 239 l-22 65 -108 1 c-64 1 -112 -3 -120 -9z m187 -443 c36 -109 63
-201 60 -205 -5 -9 -247 -11 -255 -3 -5 5 13 68 93 338 11 37 24 67 29 67 5 0
38 -89 73 -197z"/>
<path d="M11306 6713 c-3 -4 -6 -240 -6 -525 l0 -518 85 0 85 0 -2 522 -3 522
-76 2 c-42 2 -80 0 -83 -3z"/>
<path d="M14195 6712 c-3 -3 -5 -86 -5 -184 0 -139 -3 -179 -12 -176 -7 2 -38
12 -69 22 -72 24 -132 16 -196 -27 -98 -66 -138 -164 -137 -332 1 -133 22
-199 90 -274 78 -86 184 -105 269 -48 49 33 55 33 55 2 0 -26 0 -26 83 -23
l82 3 0 520 0 520 -78 1 c-42 0 -79 -2 -82 -4z m-35 -491 c25 -18 25 -20 28
-187 l2 -170 -29 -28 c-20 -19 -43 -30 -74 -33 -39 -5 -48 -2 -80 27 -105 92
-80 375 36 409 40 12 85 5 117 -18z"/>
<path d="M16534 6709 c-2 -4 76 -240 174 -525 l178 -519 43 0 44 0 24 65 c13
36 50 135 82 220 32 85 78 208 102 272 24 65 47 118 50 118 3 0 64 -153 134
-340 l128 -340 41 0 42 0 36 108 c52 152 265 773 294 856 13 38 24 74 24 80 0
11 -194 16 -203 6 -2 -3 -46 -131 -97 -285 -51 -154 -94 -282 -96 -284 -9 -10
-2 -28 -164 417 -28 75 -57 142 -65 148 -17 13 -142 11 -154 -2 -4 -5 -25 -56
-45 -114 -100 -277 -165 -445 -171 -445 -4 0 -51 128 -104 285 l-96 285 -98 1
c-54 0 -100 -3 -103 -7z"/>
<path d="M21140 6712 c-6 -2 -10 -186 -10 -523 l0 -520 83 3 82 3 0 519 0 519
-73 1 c-39 1 -77 0 -82 -2z"/>
<path d="M22167 6713 c-4 -3 -7 -240 -7 -525 l0 -518 310 0 311 0 -3 93 -3 92
-212 3 -213 2 0 428 0 427 -88 3 c-49 1 -91 -1 -95 -5z"/>
<path d="M23774 6711 c-2 -2 -4 -85 -4 -183 0 -98 -3 -178 -7 -178 -5 0 -33 9
-63 21 -162 62 -312 -58 -342 -276 -27 -188 59 -383 187 -425 54 -18 127 -8
175 24 49 32 50 32 50 1 0 -26 0 -26 83 -23 l82 3 0 520 0 520 -78 0 c-43 0
-81 -2 -83 -4z m-47 -482 l43 -21 0 -172 0 -172 -31 -30 c-25 -24 -39 -29 -79
-29 -90 0 -135 76 -134 225 0 112 27 173 88 201 52 24 60 23 113 -2z"/>
<path d="M22947 6435 c-64 -90 -117 -174 -117 -185 0 -17 6 -20 39 -20 l39 0
4 -207 c3 -206 3 -209 31 -258 15 -27 44 -61 65 -75 32 -22 48 -25 117 -25 52
1 93 6 118 17 l37 17 0 76 0 76 -31 -17 c-49 -25 -114 -23 -141 4 -22 22 -23
30 -26 207 l-3 185 100 0 101 0 0 70 0 70 -100 0 -100 0 0 115 c0 63 -4 115
-8 115 -5 0 -61 -74 -125 -165z"/>
<path d="M11940 6378 c-19 -6 -56 -28 -82 -50 -26 -21 -49 -38 -52 -38 -3 0
-6 18 -6 40 l0 40 -85 0 -85 0 2 -347 3 -348 83 -3 82 -3 0 244 0 243 38 36
c50 48 78 61 116 54 37 -7 70 -37 85 -79 7 -17 11 -121 11 -263 l0 -234 85 0
85 0 0 228 0 229 30 45 c69 103 179 97 210 -13 6 -19 10 -136 10 -261 l0 -228
86 0 85 0 -3 273 -3 272 -30 54 c-80 146 -219 158 -347 31 l-56 -57 -34 50
c-18 28 -49 58 -69 68 -45 24 -114 31 -159 17z"/>
<path d="M12970 6371 c-70 -25 -139 -97 -171 -178 -19 -48 -23 -77 -24 -173 0
-106 2 -120 28 -175 34 -73 76 -118 142 -153 44 -24 61 -27 145 -27 83 0 102
3 155 28 88 41 95 50 95 119 0 32 -3 58 -6 58 -3 0 -21 -12 -39 -26 -39 -29
-124 -64 -158 -64 -43 0 -98 21 -132 51 -33 29 -46 58 -60 127 l-7 32 201 0
c110 0 202 4 205 9 12 18 -16 167 -40 218 -66 139 -200 201 -334 154z m180
-141 c16 -17 31 -45 35 -63 4 -17 9 -40 11 -49 5 -16 -5 -18 -120 -18 l-126 0
0 25 c0 75 57 135 127 135 37 0 50 -5 73 -30z"/>
<path d="M14650 6374 c-30 -8 -74 -26 -97 -40 l-43 -25 0 -74 c0 -41 3 -75 6
-75 3 0 23 13 43 29 20 16 60 37 89 46 45 15 60 16 93 6 46 -14 72 -48 67 -91
-3 -29 -9 -34 -97 -71 -185 -79 -231 -128 -231 -246 0 -112 87 -189 193 -169
19 3 59 21 89 40 l56 33 15 -33 c13 -26 24 -34 54 -40 43 -8 113 8 160 37 30
19 33 25 33 70 0 36 -4 49 -14 49 -8 0 -18 -4 -21 -10 -10 -16 -52 -12 -59 6
-3 9 -6 102 -6 207 0 109 -5 209 -11 232 -30 107 -169 159 -319 119z m163
-391 c3 -14 3 -54 0 -87 -4 -52 -9 -65 -35 -88 -24 -21 -39 -26 -70 -23 -51 3
-60 17 -55 84 3 48 8 59 38 84 33 28 83 55 105 56 7 1 14 -11 17 -26z"/>
<path d="M18081 6368 c-172 -66 -251 -329 -158 -532 30 -65 79 -115 143 -147
41 -20 64 -24 144 -24 83 0 102 4 150 27 80 38 92 54 88 122 l-3 56 -48 -34
c-84 -60 -181 -69 -254 -25 -36 22 -83 108 -83 151 l0 28 201 0 202 0 -6 73
c-11 148 -86 266 -193 306 -68 26 -114 26 -183 -1z m174 -130 c30 -24 55 -74
55 -113 l0 -25 -126 0 -126 0 7 33 c11 48 35 96 59 112 31 23 98 19 131 -7z"/>
<path d="M18894 6371 c-38 -23 -66 -61 -102 -138 l-27 -58 -3 98 -3 97 -84 0
-85 0 0 -350 0 -351 83 3 82 3 5 170 c5 160 7 174 33 230 52 112 96 135 172
91 l44 -26 10 37 c33 118 35 142 15 164 -19 22 -73 49 -96 49 -7 0 -27 -9 -44
-19z"/>
<path d="M19434 6379 c-18 -5 -55 -30 -83 -55 l-51 -46 0 46 0 46 -85 0 -85 0
2 -347 3 -348 83 -3 82 -3 0 233 1 233 27 40 c15 22 44 49 65 60 34 18 39 19
64 5 58 -32 63 -60 63 -328 l0 -243 83 3 82 3 0 260 c0 292 -7 334 -68 393
-56 54 -115 71 -183 51z"/>
<path d="M20045 6381 c-50 -13 -89 -37 -134 -86 -53 -58 -78 -112 -90 -201
-26 -181 47 -347 179 -408 67 -31 215 -30 287 2 78 36 95 58 91 126 l-3 56
-48 -34 c-84 -60 -181 -69 -254 -25 -36 22 -83 108 -83 151 l0 28 201 0 202 0
-6 73 c-16 217 -170 360 -342 318z m140 -143 c30 -24 55 -74 55 -113 l0 -25
-126 0 -126 0 7 33 c11 50 39 101 66 114 38 20 93 16 124 -9z"/>
<path d="M20725 6377 c-64 -22 -99 -43 -136 -84 -106 -117 -129 -320 -53 -469
57 -113 162 -170 294 -161 41 3 96 13 121 23 l45 17 2 73 c1 41 1 74 -1 74 -2
0 -30 -9 -62 -20 -68 -24 -113 -25 -159 -6 -101 42 -140 229 -69 329 51 73
131 95 223 62 23 -8 47 -15 52 -15 5 0 8 32 6 72 l-3 72 -49 19 c-66 24 -161
30 -211 14z"/>
<path d="M24248 6380 c-21 -5 -65 -23 -98 -40 l-60 -30 0 -86 0 -85 33 31 c51
49 105 73 165 74 47 1 57 -3 78 -27 16 -18 24 -41 24 -63 0 -31 -4 -37 -32
-47 -86 -31 -226 -107 -251 -136 -48 -58 -60 -146 -28 -217 47 -104 162 -122
277 -44 l43 30 16 -29 c21 -42 49 -54 106 -48 96 12 139 48 139 118 0 50 0 50
-22 35 -30 -21 -55 -20 -68 3 -6 12 -10 100 -10 216 0 154 -3 204 -15 233 -21
48 -52 80 -95 99 -44 18 -153 25 -202 13z m146 -459 c-1 -74 -4 -86 -26 -107
-13 -14 -40 -27 -60 -30 -45 -8 -78 23 -78 72 0 53 20 82 79 120 80 50 86 46
85 -55z"/>
<path d="M13472 6023 l3 -348 83 -3 82 -3 0 351 0 350 -85 0 -85 0 2 -347z"/>
<path d="M21416 6200 c-58 -94 -106 -173 -106 -177 0 -3 48 -84 107 -179 l108
-174 97 0 c54 0 98 4 98 9 0 5 -46 80 -102 167 -55 87 -103 166 -105 175 -3 8
39 85 93 170 53 85 99 160 101 167 4 9 -18 12 -90 12 l-95 0 -106 -170z"/>
<path d="M5423 4382 l-102 -157 111 -3 112 -3 153 153 c84 84 153 156 153 160
0 5 -73 8 -162 8 l-163 0 -102 -158z"/>
<path d="M2310 3620 l0 -840 155 0 155 0 0 840 0 840 -155 0 -155 0 0 -840z"/>
<path d="M4518 4188 l-3 -273 -33 53 c-22 33 -51 62 -80 80 -42 24 -57 27
-137 27 -102 -1 -146 -18 -201 -77 -41 -43 -60 -82 -82 -165 -14 -58 -17 -118
-17 -413 0 -388 8 -451 68 -551 47 -78 110 -109 222 -109 108 0 172 31 227
109 l37 53 3 -68 3 -69 138 -3 137 -3 0 841 0 840 -140 0 -140 0 -2 -272z
m-58 -356 c10 -9 26 -35 36 -57 16 -35 19 -76 22 -300 6 -414 -21 -505 -148
-505 -86 0 -118 62 -132 254 -10 151 -3 423 14 496 5 25 11 51 12 57 3 18 47
64 71 74 28 12 104 1 125 -19z"/>
<path d="M8670 4335 l0 -125 140 0 140 0 0 125 0 125 -140 0 -140 0 0 -125z"/>
<path d="M11541 4194 c0 -146 -1 -267 -3 -270 -2 -2 -20 20 -39 49 -43 66 -99
98 -183 104 -121 10 -223 -41 -270 -136 -52 -102 -61 -178 -61 -526 0 -275 3
-331 19 -400 43 -189 115 -255 274 -255 99 0 170 32 221 100 18 25 37 47 42
48 5 2 9 -26 9 -62 l0 -66 140 0 140 0 0 840 0 840 -145 0 -146 0 2 -266z
m-92 -345 c20 -7 40 -26 57 -54 34 -58 48 -227 40 -465 -10 -268 -35 -341
-124 -355 -82 -14 -121 19 -148 126 -24 93 -16 592 10 664 30 81 88 111 165
84z"/>
<path d="M14185 4448 c-10 -26 -395 -1641 -395 -1654 0 -12 27 -14 162 -12
l162 3 40 210 41 210 187 3 186 2 12 -57 c7 -32 26 -128 44 -213 l32 -155 168
-3 c156 -2 167 -1 162 15 -3 10 -46 200 -96 423 -130 576 -238 1051 -261 1153
l-21 87 -209 0 c-159 0 -211 -3 -214 -12z m274 -573 c34 -220 61 -406 61 -412
0 -10 -34 -13 -135 -13 -128 0 -135 1 -135 20 0 11 29 198 65 416 36 218 65
399 65 402 0 3 4 2 9 -3 5 -6 36 -190 70 -410z"/>
<path d="M17957 4446 c-80 -29 -137 -86 -157 -157 -6 -19 -10 -82 -10 -141 l0
-108 -60 0 -61 0 3 -102 3 -103 58 -3 57 -3 0 -524 0 -525 145 0 145 0 0 525
0 525 60 0 60 0 0 105 0 105 -60 0 -60 0 0 83 c0 101 14 122 80 115 l40 -4 0
113 0 113 -102 0 c-60 -1 -119 -7 -141 -14z"/>
<path d="M23570 4190 c0 -170 -4 -270 -10 -270 -5 0 -19 18 -30 39 -51 102
-183 146 -313 107 -101 -30 -162 -110 -193 -251 -15 -67 -18 -131 -18 -395 0
-329 6 -391 46 -498 45 -121 121 -167 266 -160 106 5 138 21 197 95 22 28 43
52 48 52 4 1 7 -28 7 -64 l0 -65 140 0 140 0 0 840 0 840 -140 0 -140 0 0
-270z m-78 -353 c36 -22 58 -83 68 -185 20 -209 6 -519 -29 -596 -53 -121
-191 -108 -232 21 -16 53 -24 490 -10 593 13 98 41 156 84 176 34 15 86 11
119 -9z"/>
<path d="M25870 3619 l0 -841 338 4 c370 5 379 6 467 69 129 92 204 322 175
535 -19 149 -69 228 -172 274 -27 12 -48 24 -48 28 0 4 20 20 45 36 100 63
127 132 128 336 1 129 -1 151 -21 200 -37 91 -103 150 -203 181 -54 17 -94 19
-385 19 l-324 0 0 -841z m557 588 c23 -12 42 -24 42 -27 0 -3 7 -23 17 -45 22
-53 16 -213 -10 -266 -29 -60 -81 -80 -199 -77 -53 2 -97 6 -97 11 0 4 0 102
0 217 l0 210 103 0 c85 -1 109 -5 144 -23z m-3 -671 c33 -14 89 -62 94 -81 1
-5 7 -26 12 -45 15 -52 12 -168 -5 -235 -32 -123 -89 -158 -248 -153 -53 2
-97 6 -97 11 0 4 0 122 0 262 l0 255 105 0 c67 0 118 -5 139 -14z"/>
<path d="M31700 3620 l0 -840 145 0 145 0 0 468 0 467 24 52 c28 59 64 83 123
83 21 0 49 -7 62 -16 50 -35 51 -48 51 -569 l0 -485 146 0 145 0 -3 533 -3
532 -28 60 c-33 70 -67 109 -122 138 -32 18 -56 22 -125 21 -104 0 -144 -18
-225 -101 l-55 -58 0 278 0 277 -140 0 -140 0 0 -840z"/>
<path d="M7240 4210 l0 -170 -60 0 -60 0 0 -100 0 -99 58 -3 57 -3 5 -465 c3
-322 9 -473 17 -491 32 -72 109 -99 283 -99 l110 0 0 108 0 107 -48 2 c-86 4
-83 -13 -80 442 l3 396 63 3 62 3 0 99 0 100 -65 0 -65 0 0 170 0 170 -140 0
-140 0 0 -170z"/>
<path d="M15999 4228 c-1 -84 -2 -160 -3 -168 -1 -11 -16 -16 -58 -18 l-58 -3
0 -99 0 -99 58 -3 57 -3 5 -470 c6 -534 3 -515 90 -557 38 -19 67 -23 178 -26
l132 -4 0 105 0 105 -44 6 c-84 13 -81 -5 -81 445 l0 396 63 3 62 3 0 99 0
100 -60 0 -60 0 0 170 0 170 -140 0 -140 0 -1 -152z"/>
<path d="M19540 4210 l0 -170 -60 0 -60 0 0 -100 0 -99 58 -3 57 -3 5 -465 c5
-442 6 -467 25 -499 42 -71 103 -91 281 -91 l104 0 0 108 0 107 -47 1 c-86 3
-83 -13 -83 445 l0 399 65 0 65 0 0 100 0 100 -65 0 -65 0 0 170 0 170 -140 0
-140 0 0 -170z"/>
<path d="M6403 4069 c-151 -14 -253 -81 -287 -188 -24 -74 -28 -125 -17 -187
26 -138 96 -223 306 -369 71 -49 145 -103 163 -119 83 -73 84 -169 2 -215 -47
-26 -105 -27 -148 -1 -41 25 -52 54 -52 141 l0 69 -146 0 -147 0 5 -89 c12
-199 131 -320 346 -351 202 -30 394 50 470 195 24 45 26 61 27 155 0 184 -26
218 -317 414 -103 70 -196 139 -206 154 -64 91 -10 182 106 182 78 0 130 -62
131 -158 l1 -43 126 3 127 3 -2 104 c-3 122 -13 152 -70 204 -89 80 -235 114
-418 96z"/>
<path d="M21583 4070 c-97 -11 -162 -34 -212 -76 -102 -88 -128 -260 -61 -403
39 -81 117 -156 288 -275 193 -134 223 -170 208 -250 -7 -38 -51 -82 -92 -92
-49 -12 -107 3 -136 36 -26 28 -28 37 -28 110 l0 80 -145 0 -145 0 0 -68 c0
-206 120 -338 341 -372 204 -32 404 51 476 198 25 51 28 68 28 157 0 89 -3
106 -28 157 -36 73 -74 106 -292 253 -224 151 -255 189 -221 269 35 84 188 88
231 6 9 -18 19 -56 22 -86 l6 -54 123 0 124 0 0 105 c0 84 -4 113 -19 143 -62
120 -249 185 -468 162z"/>
<path d="M30962 4065 c-136 -30 -220 -112 -257 -251 -13 -49 -16 -120 -15
-406 0 -318 2 -353 20 -412 53 -170 241 -269 450 -237 131 21 208 66 254 151
41 76 56 142 56 258 l0 102 -139 0 -138 0 -5 -104 c-8 -156 -41 -207 -122
-192 -84 16 -96 72 -96 457 0 325 6 377 48 409 30 24 89 26 119 5 31 -21 52
-106 53 -212 0 -23 2 -23 141 -23 l142 0 -5 103 c-4 82 -10 114 -30 159 -36
78 -87 130 -158 162 -101 46 -204 56 -318 31z"/>
<path d="M3348 4056 c-56 -20 -83 -41 -127 -96 -21 -27 -41 -46 -45 -43 -3 4
-6 33 -6 65 l0 58 -140 0 -140 0 0 -630 0 -630 145 0 144 0 3 468 c3 444 4
469 23 506 28 55 62 78 118 78 54 0 81 -13 105 -49 15 -25 17 -70 20 -515 l3
-488 139 0 140 0 0 523 c0 578 -1 587 -63 669 -48 64 -122 98 -211 98 -39 -1
-88 -7 -108 -14z"/>
<path d="M9590 4060 c-138 -15 -244 -66 -306 -147 -33 -43 -54 -126 -54 -212
l0 -42 137 3 136 3 2 42 c5 101 51 138 173 138 65 0 76 -3 93 -23 31 -39 42
-96 26 -135 -22 -53 -76 -89 -247 -167 -87 -40 -177 -87 -198 -106 -93 -80
-137 -196 -130 -349 9 -203 121 -315 316 -315 99 0 159 27 224 98 25 29 49 52
52 52 3 0 6 -15 6 -34 0 -19 4 -46 10 -60 l10 -26 131 0 131 0 -7 28 c-4 15
-11 250 -14 522 -6 481 -7 497 -29 551 -22 54 -60 99 -114 132 -62 39 -226 61
-348 47z m206 -801 c-7 -200 -17 -237 -76 -279 -26 -18 -41 -22 -86 -18 -85 7
-124 58 -124 160 0 84 15 122 72 177 29 28 55 51 59 51 4 0 40 20 80 45 40 25
75 45 78 45 2 0 1 -81 -3 -181z"/>
<path d="M12340 4056 c-151 -34 -228 -109 -267 -261 -15 -60 -18 -113 -17
-375 1 -282 2 -311 23 -385 38 -139 114 -223 236 -261 66 -21 225 -29 300 -15
123 23 238 101 277 188 22 50 33 152 24 216 l-7 45 -137 -2 -137 -1 -5 -75
c-7 -88 -32 -133 -86 -156 -69 -29 -134 -6 -181 65 -21 31 -23 45 -23 172 l0
139 290 0 290 0 0 144 c0 248 -26 365 -101 450 -52 59 -107 91 -189 110 -77
19 -213 19 -290 2z m245 -223 c37 -28 47 -60 53 -165 6 -117 17 -110 -173
-106 l-130 3 -3 70 c-5 105 4 147 39 183 17 17 40 33 52 36 42 9 138 -4 162
-21z"/>
<path d="M16910 4056 c-147 -31 -223 -108 -268 -269 -24 -89 -24 -628 1 -730
53 -214 181 -306 426 -307 180 0 330 71 388 184 24 46 27 62 27 161 l1 110
-120 3 c-168 4 -165 5 -165 -71 0 -104 -46 -165 -131 -174 -35 -4 -51 0 -78
19 -70 48 -76 64 -79 224 l-3 144 291 0 292 0 -4 198 c-6 221 -21 291 -80 373
-42 58 -63 76 -123 103 -98 46 -252 59 -375 32z m246 -222 c39 -26 47 -51 52
-161 5 -123 17 -115 -173 -111 l-130 3 -3 77 c-5 124 23 188 91 210 35 11 135
0 163 -18z"/>
<path d="M18730 4059 c-84 -8 -114 -17 -180 -48 -116 -55 -168 -135 -171 -266
l-2 -80 136 -3 137 -3 0 56 c0 49 4 60 28 85 58 57 195 67 238 17 31 -36 40
-97 20 -139 -21 -44 -84 -85 -236 -154 -209 -94 -264 -141 -312 -263 -17 -45
-22 -77 -22 -161 -1 -138 18 -195 88 -266 68 -67 127 -87 239 -82 99 4 142 23
206 90 25 26 49 48 53 48 5 0 8 -11 8 -24 0 -12 5 -37 11 -55 l11 -31 133 0
134 0 -11 33 c-8 20 -14 207 -17 527 -6 495 -6 495 -30 548 -29 64 -95 125
-160 147 -40 13 -204 38 -221 34 -3 -1 -39 -5 -80 -10z m200 -963 c-20 -95
-77 -142 -162 -134 -101 10 -143 110 -103 244 18 62 61 104 180 178 l90 55 3
-147 c1 -81 -2 -169 -8 -196z"/>
<path d="M20440 4056 c-137 -40 -211 -121 -256 -281 -22 -77 -32 -569 -15
-696 25 -183 110 -283 272 -319 87 -19 299 -9 370 19 118 45 186 140 209 290
8 47 10 177 8 369 -5 318 -9 345 -64 453 -30 61 -102 123 -173 150 -70 27
-278 36 -351 15z m240 -224 c14 -10 34 -36 45 -58 19 -36 20 -61 22 -361 2
-177 0 -336 -3 -352 -11 -52 -53 -90 -113 -101 -82 -15 -133 6 -175 74 -17 27
-18 57 -18 362 0 321 1 336 22 378 21 44 48 69 85 79 34 10 109 -2 135 -21z"/>
<path d="M24355 4056 c-149 -38 -219 -108 -261 -263 -34 -129 -28 -653 10
-778 37 -121 118 -206 229 -241 69 -21 237 -30 308 -15 121 25 225 96 272 185
17 34 21 59 21 151 l1 110 -100 3 c-55 2 -119 1 -141 -3 l-42 -6 -4 -73 c-3
-61 -8 -79 -31 -109 -49 -64 -135 -73 -198 -20 -50 42 -59 77 -59 223 l0 130
291 0 292 0 -5 198 c-6 221 -21 292 -80 373 -55 76 -107 110 -210 134 -76 18
-224 18 -293 1z m209 -206 c61 0 101 -93 94 -220 l-3 -65 -150 0 -150 0 -3 70
c-5 105 4 147 39 183 31 31 69 43 123 36 16 -2 38 -4 50 -4z"/>
<path d="M27303 4050 c-148 -48 -226 -162 -253 -370 -13 -102 -13 -510 1 -607
21 -153 87 -247 208 -295 50 -20 73 -23 216 -23 143 0 166 3 216 23 112 45
184 138 209 272 16 86 13 604 -5 696 -20 104 -55 173 -116 228 -76 68 -139 88
-289 93 -105 2 -135 0 -187 -17z m254 -216 c13 -8 33 -33 45 -57 23 -41 23
-48 23 -372 0 -366 -4 -392 -59 -426 -42 -26 -130 -26 -173 1 -67 40 -68 47
-68 425 0 365 1 371 54 419 40 36 129 41 178 10z"/>
<path d="M29990 4063 c-148 -12 -276 -74 -330 -160 -31 -49 -35 -65 -45 -175
l-7 -68 141 0 141 0 0 54 c0 66 22 97 85 121 56 22 146 17 175 -10 25 -23 43
-88 35 -126 -11 -49 -83 -100 -244 -174 -172 -78 -244 -130 -283 -201 -87
-161 -74 -375 29 -485 58 -62 126 -89 225 -89 104 0 143 15 219 87 l66 63 6
-50 c3 -28 9 -55 12 -60 4 -6 64 -10 140 -10 l135 0 -12 28 c-9 19 -14 174
-18 527 -5 495 -5 501 -28 550 -40 86 -101 135 -200 160 -64 15 -175 24 -242
18z m188 -825 c-4 -160 -5 -168 -31 -207 -36 -54 -77 -74 -139 -69 -79 8 -118
62 -118 163 0 106 43 164 189 255 81 51 97 58 100 43 2 -10 1 -93 -1 -185z"/>
<path d="M33114 4060 c-118 -13 -203 -47 -267 -109 -60 -56 -79 -102 -85 -203
l-5 -88 137 0 136 0 0 39 c0 91 45 138 143 148 105 11 157 -29 157 -120 0 -70
-29 -94 -238 -198 -217 -107 -264 -144 -307 -240 -50 -113 -49 -285 2 -387 51
-101 145 -152 281 -152 98 0 162 29 226 102 l43 49 12 -60 12 -61 136 0 135 0
-7 23 c-5 12 -11 245 -15 517 -4 295 -11 507 -17 525 -23 66 -56 117 -95 145
-80 58 -235 86 -384 70z m211 -804 c-3 -167 -9 -198 -50 -252 -69 -90 -222
-46 -238 68 -7 54 1 124 20 161 7 15 10 27 6 27 -4 0 15 20 42 44 27 25 52 43
56 40 4 -2 9 -1 11 3 5 12 83 63 96 63 7 0 12 4 12 9 0 13 34 19 41 8 4 -6 6
-82 4 -171z"/>
<path d="M8363 4046 c-79 -25 -132 -74 -190 -174 l-32 -57 -1 113 0 112 -140
0 -140 0 0 -630 0 -630 139 0 140 0 3 403 3 402 24 42 c14 24 42 55 64 70 34
24 53 29 119 32 l78 3 0 164 c0 180 4 172 -67 150z"/>
<path d="M15670 4044 c-71 -22 -130 -73 -174 -147 -21 -37 -42 -67 -45 -67 -4
0 -7 46 -7 103 l0 102 -137 3 -137 3 0 -631 0 -630 139 0 140 0 3 403 3 404
30 48 c42 67 101 98 190 96 l65 -1 0 165 c0 182 4 173 -70 149z"/>
<path d="M28655 4051 c-75 -18 -140 -72 -189 -155 -21 -36 -43 -66 -47 -66 -5
0 -9 47 -9 105 l0 105 -135 0 -135 0 0 -630 0 -630 140 0 139 0 3 403 c3 461
2 453 92 515 44 29 55 32 122 32 l74 0 0 165 c0 126 -3 165 -12 164 -7 -1 -26
-4 -43 -8z"/>
<path d="M29381 4049 c-77 -23 -149 -88 -199 -182 l-27 -52 -3 113 -3 112
-139 0 -140 0 0 -630 0 -630 139 0 139 0 4 398 c5 444 4 439 76 504 45 41 83
52 166 46 l56 -3 0 168 c0 185 4 176 -69 156z"/>
<path d="M5030 3502 c0 -584 1 -597 55 -668 43 -57 96 -78 192 -77 73 0 91 4
149 33 56 27 72 41 103 91 20 32 39 58 44 59 4 0 7 -36 7 -80 l0 -80 135 0
135 0 0 630 0 631 -142 -3 -143 -3 -3 -425 c-3 -461 -7 -508 -58 -555 -51 -47
-133 -35 -168 25 -20 34 -21 52 -24 495 l-3 460 -139 3 -140 3 0 -539z"/>
<path d="M8670 3410 l0 -630 145 0 145 0 0 630 0 630 -145 0 -145 0 0 -630z"/>
</g>
</svg>
